<svg xmlns="http://www.w3.org/2000/svg" viewBox="0 0 256 256">
  <defs>
    <linearGradient id="shell" x1="0" y1="0" x2="1" y2="1">
      <stop offset="0" stop-color="#FFFFFF"/><stop offset="1" stop-color="#BBD6F1"/>
    </linearGradient>
  </defs>
  <path d="M76 42h104c31 0 56 25 56 56v54c0 34-28 62-62 62H82c-34 0-62-28-62-62V98c0-31 25-56 56-56Z" fill="url(#shell)" stroke="#0B2B63" stroke-width="8"/>
  <rect x="51" y="78" width="154" height="96" rx="42" fill="#061B3A"/>
  <ellipse cx="98" cy="123" rx="13" ry="20" fill="#48D7FF"/>
  <ellipse cx="158" cy="123" rx="13" ry="20" fill="#48D7FF"/>
  <path d="M98 151c18 18 42 18 60 0" fill="none" stroke="#48D7FF" stroke-width="9" stroke-linecap="round"/>
  <circle cx="225" cy="122" r="21" fill="#1597FF" stroke="#0B2B63" stroke-width="7"/>
  <circle cx="31" cy="122" r="21" fill="#1597FF" stroke="#0B2B63" stroke-width="7"/>
</svg>
